<svg width="142" height="179" viewBox="0 0 142 179" fill="none" xmlns="http://www.w3.org/2000/svg">
<path d="M0 151.881V27.1187C0 9.34273 9.19067 0 26.9096 0H115.09C132.809 0 142 9.34273 142 27.1187V151.881C142 169.74 132.809 179 115.09 179H26.9096C9.19067 179 0 169.74 0 151.881ZM52.6601 85.6554H59.0356C59.6152 85.6554 60.0292 85.8208 60.4431 86.2342L65.0799 90.7815C68.8058 94.5848 72.449 94.5021 76.2577 90.7815L80.8117 86.2342C81.2257 85.9035 81.5568 85.6554 82.2192 85.6554H88.512C93.8111 85.6554 96.4606 83.0924 96.4606 77.8009V71.4346C96.4606 70.7732 96.5434 70.4425 97.0402 69.9464L101.511 65.3991C105.32 61.6785 105.32 57.958 101.511 54.2374L97.0402 49.6901C96.5434 49.2767 96.4606 48.8633 96.4606 48.2845V41.9182C96.4606 36.6268 93.8939 34.0637 88.512 34.0637H82.2192C81.5568 34.0637 81.2257 33.733 80.8117 33.4023L76.2577 29.0203C72.449 25.0517 68.8058 25.1344 65.0799 29.0203L60.4431 33.4023C60.0292 33.8157 59.6152 34.0637 59.0356 34.0637H52.6601C47.2781 34.0637 44.7114 36.5441 44.7114 41.9182V48.2845C44.7114 48.8633 44.6286 49.2767 44.2146 49.6901L39.6606 54.2374C35.8519 57.958 35.8519 61.6785 39.6606 65.3991L44.2146 69.9464C44.6286 70.4425 44.7114 70.7732 44.7114 71.4346V77.8009C44.7114 83.0924 47.2781 85.6554 52.6601 85.6554ZM67.3155 75.3206C65.9079 75.3206 64.8315 74.7418 63.7551 73.4189L56.4688 64.5723C55.8064 63.8282 55.3924 62.836 55.3924 62.0092C55.3924 59.9423 56.9656 58.206 59.1184 58.206C60.2775 58.206 61.1883 58.8674 62.1819 60.0249L67.1499 66.2259L78.8245 47.7058C79.5697 46.5483 80.6461 45.7215 81.9708 45.7215C83.8752 45.7215 85.5312 47.0443 85.5312 49.1113C85.5312 50.0208 85.2 51.0129 84.7032 51.757L70.793 73.3363C69.965 74.7418 68.6402 75.3206 67.3155 75.3206ZM39.3294 116.66H102.836C105.9 116.66 108.301 114.18 108.301 111.038C108.301 108.061 105.9 105.746 102.836 105.746H39.3294C36.1003 105.746 33.7819 108.061 33.7819 111.038C33.7819 114.18 36.1003 116.66 39.3294 116.66ZM39.3294 141.629H69.965C73.1942 141.629 75.4297 139.314 75.4297 136.255C75.4297 133.113 73.1942 130.633 69.965 130.633H39.3294C36.1003 130.633 33.7819 133.113 33.7819 136.255C33.7819 139.314 36.1003 141.629 39.3294 141.629Z" fill="url(#paint0_linear_5587_13324)"/>
<defs>
<linearGradient id="paint0_linear_5587_13324" x1="71" y1="0" x2="71" y2="179" gradientUnits="userSpaceOnUse">
<stop stop-color="#002FFF"/>
<stop offset="1" stop-color="#002FFF" stop-opacity="0"/>
</linearGradient>
</defs>
</svg>
