<svg width="60" height="64" viewBox="0 0 60 64" fill="none" xmlns="http://www.w3.org/2000/svg">
<path d="M30 64C13.4591 64 0 50.6033 0 34.1391C0 17.6749 13.4591 4.27824 30 4.27824C46.5409 4.27824 60 17.6749 60 34.1391C60 50.6033 46.5409 64 30 64ZM30 8.50814C15.8066 8.50814 4.2496 20.0115 4.2496 34.1391C4.2496 48.2667 15.8066 59.7701 30 59.7701C44.1934 59.7701 55.7504 48.2667 55.7504 34.1391C55.7504 20.0115 44.2055 8.50814 30 8.50814Z" fill="black"/>
<path d="M29.9979 46.6961C36.9923 46.6961 42.6624 41.0523 42.6624 34.0903C42.6624 27.1283 36.9923 21.4845 29.9979 21.4845C23.0034 21.4845 17.3333 27.1283 17.3333 34.0903C17.3333 41.0523 23.0034 46.6961 29.9979 46.6961Z" fill="black"/>
<path d="M30.0051 12.7736C33.5488 12.7736 36.4216 9.9141 36.4216 6.38678C36.4216 2.85946 33.5488 0 30.0051 0C26.4613 0 23.5885 2.85946 23.5885 6.38678C23.5885 9.9141 26.4613 12.7736 30.0051 12.7736Z" fill="black"/>
</svg>
